<svg xmlns="http://www.w3.org/2000/svg" width="24" height="24" viewBox="0 0 24 24" fill="none">
  <defs>
    <linearGradient id="bgGradient" x1="0%" y1="0%" x2="100%" y2="100%">
      <stop offset="0%" style="stop-color:#3b82f6"/>
      <stop offset="100%" style="stop-color:#22c55e"/>
    </linearGradient>
  </defs>
  <rect x="1" y="1" width="22" height="22" rx="4" ry="4" fill="url(#bgGradient)"/>
  <g transform="translate(12,12) scale(0.7) translate(-12,-12)">
    <path d="M19 14c1.49-1.46 3-3.21 3-5.5A5.5 5.5 0 0 0 16.5 3c-1.76 0-3 .5-4.5 2-1.5-1.5-2.74-2-4.5-2A5.5 5.5 0 0 0 2 8.5c0 2.3 1.5 4.05 3 5.5l7 7Z" fill="none" stroke="white" stroke-width="2" stroke-linecap="round" stroke-linejoin="round"></path>
    <path d="M3.22 12H9.5l.5-1 2 4.5 2-7 1.5 3.5h5.27" fill="none" stroke="white" stroke-width="2" stroke-linecap="round" stroke-linejoin="round"></path>
  </g>
</svg>